{
  "accessors": [
    {
      "bufferView": 2,
      "componentType": 5126,
      "count": 4279,
      "max": [
        12.43923282623291,
        12.536629676818848,
        12.43923282623291
      ],
      "min": [
        -12.43923282623291,
        -2.384185791015625e-07,
        -12.439233779907227
      ],
      "type": "VEC3"
    },
    {
      "bufferView": 2,
      "byteOffset": 51348,
      "componentType": 5126,
      "count": 4279,
      "max": [
        1.0,
        1.0,
        1.0
      ],
      "min": [
        -1.0,
        -1.0,
        -1.0
      ],
      "type": "VEC3"
    },
    {
      "bufferView": 1,
      "componentType": 5126,
      "count": 4279,
      "max": [
        0.9881875514984131,
        0.992336094379425
      ],
      "min": [
        0.0,
        0.0
      ],
      "type": "VEC2"
    },
    {
      "bufferView": 0,
      "componentType": 5125,
      "count": 7818,
      "type": "SCALAR"
    },
    {
      "bufferView": 2,
      "byteOffset": 102696,
      "componentType": 5126,
      "count": 116,
      "max": [
        11.313173294067383,
        1.3591334819793701,
        11.288956642150879
      ],
      "min": [
        -10.300820350646973,
        -7.771561172376096e-15,
        -10.418362617492676
      ],
      "type": "VEC3"
    },
    {
      "bufferView": 2,
      "byteOffset": 104088,
      "componentType": 5126,
      "count": 116,
      "max": [
        0.9951161742210388,
        0.0,
        0.48510897159576416
      ],
      "min": [
        -0.9951045513153076,
        0.0,
        -0.9904741644859314
      ],
      "type": "VEC3"
    },
    {
      "bufferView": 1,
      "byteOffset": 34232,
      "componentType": 5126,
      "count": 116,
      "max": [
        0.914148211479187,
        0.5818185806274414
      ],
      "min": [
        0.08585181832313538,
        0.005538826808333397
      ],
      "type": "VEC2"
    },
    {
      "bufferView": 1,
      "byteOffset": 35160,
      "componentType": 5126,
      "count": 116,
      "max": [
        0.914148211479187,
        0.5818185806274414
      ],
      "min": [
        0.08585181832313538,
        0.005538826808333397
      ],
      "type": "VEC2"
    },
    {
      "bufferView": 0,
      "byteOffset": 31272,
      "componentType": 5125,
      "count": 174,
      "type": "SCALAR"
    }
  ],
  "asset": {
    "extras": {
      "author": "Wesai (https://sketchfab.com/Wesai)",
      "license": "CC-BY-4.0 (http://creativecommons.org/licenses/by/4.0/)",
      "source": "https://sketchfab.com/3d-models/house-sketch-4623a16c935b411e851fd23f4cf31267",
      "title": "House Sketch"
    },
    "generator": "Sketchfab-12.65.0",
    "version": "2.0"
  },
  "bufferViews": [
    {
      "buffer": 0,
      "byteLength": 31968,
      "name": "floatBufferViews",
      "target": 34963
    },
    {
      "buffer": 0,
      "byteLength": 36088,
      "byteOffset": 31968,
      "byteStride": 8,
      "name": "floatBufferViews",
      "target": 34962
    },
    {
      "buffer": 0,
      "byteLength": 105480,
      "byteOffset": 68056,
      "byteStride": 12,
      "name": "floatBufferViews",
      "target": 34962
    }
  ],
  "buffers": [
    {
      "byteLength": 173536,
      "uri": "scene.bin"
    }
  ],
  "extensionsUsed": [
    "KHR_materials_unlit"
  ],
  "images": [
    {
      "uri": "textures/base_mat_baseColor.png"
    },
    {
      "uri": "textures/grass_mat_baseColor.png"
    }
  ],
  "materials": [
    {
      "alphaMode": "BLEND",
      "doubleSided": true,
      "extensions": {
        "KHR_materials_unlit": {}
      },
      "name": "base_mat",
      "pbrMetallicRoughness": {
        "baseColorTexture": {
          "index": 0
        },
        "metallicFactor": 0.0
      }
    },
    {
      "alphaMode": "BLEND",
      "doubleSided": true,
      "extensions": {
        "KHR_materials_unlit": {}
      },
      "name": "grass_mat",
      "pbrMetallicRoughness": {
        "baseColorTexture": {
          "index": 1
        },
        "metallicFactor": 0.0
      }
    }
  ],
  "meshes": [
    {
      "name": "house_mesh_base_mat_0",
      "primitives": [
        {
          "attributes": {
            "NORMAL": 1,
            "POSITION": 0,
            "TEXCOORD_0": 2
          },
          "indices": 3,
          "material": 0,
          "mode": 4
        }
      ]
    },
    {
      "name": "house_mesh_grass_mat_0",
      "primitives": [
        {
          "attributes": {
            "NORMAL": 5,
            "POSITION": 4,
            "TEXCOORD_0": 6,
            "TEXCOORD_1": 7
          },
          "indices": 8,
          "material": 1,
          "mode": 4
        }
      ]
    }
  ],
  "nodes": [
    {
      "children": [
        1
      ],
      "matrix": [
        0.16186854243278503,
        0.0,
        0.0,
        0.0,
        0.0,
        3.594203655427842e-17,
        -0.16186854243278503,
        0.0,
        0.0,
        0.16186854243278503,
        3.594203655427842e-17,
        0.0,
        0.0,
        0.0,
        0.0,
        1.0
      ],
      "name": "Sketchfab_model"
    },
    {
      "children": [
        2
      ],
      "matrix": [
        1.0,
        0.0,
        0.0,
        0.0,
        0.0,
        0.0,
        1.0,
        0.0,
        0.0,
        -1.0,
        0.0,
        0.0,
        0.0,
        0.0,
        0.0,
        1.0
      ],
      "name": "house_sketch.fbx"
    },
    {
      "children": [
        3
      ],
      "name": "RootNode"
    },
    {
      "children": [
        4,
        5
      ],
      "name": "house_mesh"
    },
    {
      "mesh": 0,
      "name": "house_mesh_base_mat_0"
    },
    {
      "mesh": 1,
      "name": "house_mesh_grass_mat_0"
    }
  ],
  "samplers": [
    {
      "magFilter": 9728,
      "minFilter": 9728,
      "wrapS": 10497,
      "wrapT": 10497
    }
  ],
  "scene": 0,
  "scenes": [
    {
      "name": "Sketchfab_Scene",
      "nodes": [
        0
      ]
    }
  ],
  "textures": [
    {
      "sampler": 0,
      "source": 0
    },
    {
      "sampler": 0,
      "source": 1
    }
  ]
}
